<?xml version="1.0" encoding="UTF-8"?>
<svg width="16px" height="8px" viewBox="0 0 16 8" version="1.1" xmlns="http://www.w3.org/2000/svg" xmlns:xlink="http://www.w3.org/1999/xlink">
    <!-- Generator: Sketch 53.2 (72643) - https://sketchapp.com -->
    <title>Shape</title>
    <desc>Created with Sketch.</desc>
    <g id="Input-Styles" stroke="none" stroke-width="1" fill="none" fill-rule="evenodd">
        <g id="Buttons-/-Secondary-White" transform="translate(-128.000000, -18.000000)" fill="#0097F4" fill-rule="nonzero">
            <path d="M143.894248,21.744921 L143.894248,21.744921 L140.257969,18.1264867 C140.127346,17.974708 139.897788,17.9570145 139.745259,18.0870261 C139.592731,18.2170066 139.57495,18.4454365 139.705604,18.5972152 C139.717791,18.6113638 139.731041,18.6245796 139.745259,18.6366758 L142.759737,21.6399726 L128.363619,21.6399726 C128.16281,21.6399726 128,21.8019818 128,22.0018347 C128,22.2016875 128.16281,22.3636656 128.363619,22.3636656 L142.759737,22.3636656 L139.745259,25.3633242 C139.592731,25.4933047 139.57495,25.7217346 139.705604,25.8735133 C139.836258,26.025292 140.065785,26.0429855 140.218313,25.9129739 C140.232532,25.9008465 140.245813,25.8876619 140.257969,25.8735133 L143.894279,22.255079 C144.035245,22.1139973 144.035245,21.8860649 143.894248,21.744921 Z" id="Shape"></path>
        </g>
    </g>
</svg>