<svg height="22" viewBox="0 0 43 22" width="43" xmlns="http://www.w3.org/2000/svg"><path d="m42.7157914 10.2985327-9.7724996-9.95069431c-.3510484-.41739146-.9679867-.46604864-1.3779071-.10851665-.4099204.35744648-.4577067.98562873-.1065743 1.40302019.0327533.03890864.0683621.07525189.1065743.10851664l8.1014083 8.25906603h-38.68956823c-.53967397 0-.97722477.4455254-.97722477.9951207s.4375508.9950352.97722477.9950352h38.68956823l-8.1014083 8.2490609c-.4099204.3574465-.4577067.9856288-.1065743 1.4030202.3511324.4173915.9679867.4660487 1.3779071.1085167.0382122-.0333503.0739049-.069608.1065743-.1085167l9.7725836-9.9506943c.3788468-.3879748.3788468-1.0147888-.000084-1.4029346z" fill="#0097f4" transform="matrix(-1 0 0 -1 43 22)"/></svg>