<?xml version="1.0" encoding="UTF-8"?>
<svg width="43px" height="22px" viewBox="0 0 43 22" version="1.1" xmlns="http://www.w3.org/2000/svg" xmlns:xlink="http://www.w3.org/1999/xlink">
    <!-- Generator: Sketch 53.2 (72643) - https://sketchapp.com -->
    <title>right-arrow</title>
    <desc>Created with Sketch.</desc>
    <g id="Mockups" stroke="none" stroke-width="1" fill="none" fill-rule="evenodd">
        <g id="About---Values-Section-Icon-Click" transform="translate(-1275.000000, -169.000000)" fill="#0097F4" fill-rule="nonzero">
            <g id="Group" transform="translate(122.000000, 169.000000)">
                <g id="right-arrow" transform="translate(1174.500000, 11.000000) rotate(-360.000000) translate(-1174.500000, -11.000000) translate(1153.000000, 0.000000)">
                    <path d="M42.7157914,10.2985327 L42.7157914,10.2985327 L32.9432918,0.347838385 C32.5922434,-0.0695530659 31.9753051,-0.118210254 31.5653847,0.239321738 C31.1554643,0.596768217 31.107678,1.22495047 31.4588104,1.64234193 C31.4915637,1.68125057 31.5271725,1.71759382 31.5653847,1.75085857 L39.666793,10.0099246 L0.977224771,10.0099246 C0.437550796,10.0099246 0,10.45545 0,11.0050453 C0,11.5546406 0.437550796,12.0000805 0.977224771,12.0000805 L39.666793,12.0000805 L31.5653847,20.2491414 C31.1554643,20.6065879 31.107678,21.2347702 31.4588104,21.6521616 C31.8099428,22.0695531 32.4267971,22.1182103 32.8367175,21.7606783 C32.8749297,21.727328 32.9106224,21.6910703 32.9432918,21.6521616 L42.7158754,11.7014673 C43.0947222,11.3134925 43.0947222,10.6866785 42.7157914,10.2985327 Z" id="Shape"></path>
                </g>
            </g>
        </g>
    </g>
</svg>