<?xml version="1.0" encoding="UTF-8"?>
<svg width="23px" height="23px" viewBox="0 0 23 23" version="1.1" xmlns="http://www.w3.org/2000/svg" xmlns:xlink="http://www.w3.org/1999/xlink">
    <!-- Generator: Sketch 53.2 (72643) - https://sketchapp.com -->
    <title>Path</title>
    <desc>Created with Sketch.</desc>
    <g id="Mockups" stroke="none" stroke-width="1" fill="none" fill-rule="evenodd">
        <g id="Modal-Form" transform="translate(-606.000000, -6.000000)" fill="#EFF3F1" stroke="#FFFFFF">
            <path d="M619.338718,17.4986669 L627.606231,9.23115386 C628.131256,8.70612823 628.131256,7.91776942 627.606231,7.39192343 C627.080385,6.86935886 626.295307,6.86935886 625.769461,7.39192343 L617.498667,15.6627179 L609.231154,7.39192343 C608.706128,6.86935886 607.917769,6.86935886 607.391923,7.39192343 C606.869359,7.91776942 606.869359,8.70612823 607.391923,9.23115386 L615.662718,17.4986669 L607.391923,25.7694614 C606.869359,26.2953074 606.869359,27.0803848 607.391923,27.6062308 C607.917769,28.1312564 608.706128,28.1312564 609.231154,27.6062308 L617.498667,19.3387177 L625.769461,27.6062308 C626.295307,28.1312564 627.080385,28.1312564 627.606231,27.6062308 C628.131256,27.0803848 628.131256,26.2953074 627.606231,25.7694614 L619.338718,17.4986669 Z" id="Path"></path>
        </g>
    </g>
</svg>