<?xml version="1.0" encoding="UTF-8"?>
<svg width="62px" height="62px" viewBox="0 0 62 62" version="1.1" xmlns="http://www.w3.org/2000/svg" xmlns:xlink="http://www.w3.org/1999/xlink">
    <!-- Generator: Sketch 54.1 (76490) - https://sketchapp.com -->
    <title>Group 7</title>
    <desc>Created with Sketch.</desc>
    <g id="Mockups" stroke="none" stroke-width="1" fill="none" fill-rule="evenodd">
        <g id="Individual-Product---4-rows" transform="translate(-222.000000, -801.000000)">
            <g id="Group-7" transform="translate(222.000000, 801.000000)">
                <g id="Group-11" fill="#0059D3">
                    <circle id="Oval" cx="31" cy="31" r="31"></circle>
                </g>
                <g id="computer" transform="translate(13.000000, 16.000000)" fill="#FFFFFF" fill-rule="nonzero">
                    <path d="M36,19.9835313 C36,19.9824514 35.9997254,19.9816415 35.9997254,19.9808315 L35.9997254,2.8083153 C35.9997254,1.25971919 34.7181701,2.84217094e-14 33.1430054,2.84217094e-14 L2.85699459,2.84217094e-14 C1.28182985,2.84217094e-14 0.000274658203,1.25971919 0.000274658203,2.8083153 L0.000274658203,19.9813715 C0.000274658203,19.9821815 2.84217094e-14,19.9827214 2.84217094e-14,19.9835313 C2.84217094e-14,19.9840713 2.84217094e-14,19.9848812 0.000274658203,19.9854211 L0.000274658203,22.2734881 C0.000274658203,23.8220842 1.28182985,25.0818035 2.85699459,25.0818035 L6.56817623,25.0818035 C6.85958864,25.0818035 7.09551998,24.849892 7.09551998,24.5634449 C7.09551998,24.2772678 6.85958864,24.0450864 6.56817623,24.0450864 L2.85699459,24.0450864 C1.86328125,24.0450864 1.05496214,23.25027 1.05496214,22.2734881 L1.05496214,20.5018899 L34.9450379,20.5018899 L34.9450379,22.2734881 C34.9450379,23.25027 34.1367188,24.0450864 33.1430054,24.0450864 L22.3571777,24.0450864 C22.3569031,24.0450864 22.3566285,24.0450864 22.3563537,24.0450864 L19.1661988,24.0450864 C19.1656494,24.0450864 19.1653748,24.0450864 19.1648254,24.0450864 C19.1645508,24.0450864 19.1640015,24.0450864 19.1634521,24.0450864 L16.8365479,24.0450864 C16.8359985,24.0450864 16.8357239,24.0450864 16.8351746,24.0450864 C16.8348999,24.0450864 16.8343506,24.0450864 16.8338012,24.0450864 L8.68112184,24.0450864 C8.38998415,24.0450864 8.15377809,24.2772678 8.15377809,24.5634449 C8.15377809,24.849892 8.38998415,25.0818035 8.68112184,25.0818035 L13.0344543,25.0818035 L12.5837402,28.62527 L9.84622191,28.62527 C9.55508421,28.62527 9.31887816,28.8571814 9.31887816,29.1436285 L9.31887816,31.4333153 C9.31887816,31.7197624 9.55508421,31.9516738 9.84622191,31.9516738 L26.1540527,31.9516738 C26.4451904,31.9516738 26.6813965,31.7197624 26.6813965,31.4333153 L26.6813965,29.1436285 C26.6813965,28.8571814 26.4451904,28.62527 26.1540527,28.62527 L23.4162598,28.62527 L22.9655457,25.0818035 L33.1427307,25.0818035 C34.7181701,25.0818035 35.9997254,23.8220842 35.9997254,22.2734881 L35.9997254,19.9862311 C35.9997254,19.9851512 36,19.9843413 36,19.9835313 Z M17.3625183,25.0818035 L18.6374817,25.0818035 L18.6374817,26.3350432 L17.3625183,26.3350432 L17.3625183,25.0818035 Z M25.626709,30.9149568 L10.3735657,30.9149568 L10.3735657,29.6617171 L25.626709,29.6617171 L25.626709,30.9149568 Z M22.3533325,28.62527 L13.6466675,28.62527 L14.0973816,25.0818035 L16.3078308,25.0818035 L16.3078308,26.8534017 C16.3078308,27.1398488 16.5440369,27.3717602 16.8351746,27.3717602 L19.1648254,27.3717602 C19.4562378,27.3717602 19.6921692,27.1398488 19.6921692,26.8534017 L19.6921692,25.0818035 L21.9026184,25.0818035 L22.3533325,28.62527 Z M32.6156617,19.4651728 L3.38433834,19.4651728 L3.38433834,3.32667383 L32.6156617,3.32667383 L32.6156617,19.4651728 Z M33.6703492,19.4651728 L33.6703492,2.8083153 C33.6703492,2.52213826 33.434143,2.28995677 33.1430054,2.28995677 L2.85699459,2.28995677 C2.56585697,2.28995677 2.32965084,2.52213826 2.32965084,2.8083153 L2.32965084,19.4651728 L1.05496214,19.4651728 L1.05496214,2.8083153 C1.05496214,1.83126352 1.86328125,1.03671706 2.85699459,1.03671706 L33.1430054,1.03671706 C34.1367188,1.03671706 34.9450379,1.83126352 34.9450379,2.8083153 L34.9450379,19.4651728 L33.6703492,19.4651728 Z" id="Shape"></path>
                    <path d="M19.1648254,22.7918466 C19.4562378,22.7918466 19.6921692,22.5596652 19.6921692,22.2734881 C19.6921692,21.987041 19.4562378,21.7551296 19.1648254,21.7551296 L16.8351746,21.7551296 C16.5440369,21.7551296 16.3078308,21.987041 16.3078308,22.2734881 C16.3078308,22.5596652 16.5440369,22.7918466 16.8351746,22.7918466 L19.1648254,22.7918466 Z" id="Path"></path>
                    <path d="M18,18.211933 C21.8235168,18.211933 24.934021,15.1541577 24.934021,11.3960583 C24.934021,7.63768895 21.8235168,4.58018357 18,4.58018357 C14.1764832,4.58018357 11.065979,7.63768895 11.065979,11.3960583 C11.065979,15.1541577 14.1764832,18.211933 18,18.211933 Z M13.1956787,14.7208424 L17.4726562,12.2937365 L17.4726562,17.150648 C15.7077027,16.9956803 14.1654968,16.0710043 13.1956787,14.7208424 Z M12.1206665,11.3960583 C12.1206665,10.5288877 12.3173218,9.70653346 12.666687,8.96787255 L16.9453125,11.3960583 L12.666687,13.8239741 C12.3173218,13.0853132 12.1206665,12.262959 12.1206665,11.3960583 Z M23.8793335,11.3960583 C23.8793335,12.262959 23.6826782,13.0853132 23.333313,13.8239741 L19.0546875,11.3960583 L23.333313,8.96787255 C23.6826782,9.70653346 23.8793335,10.5288877 23.8793335,11.3960583 Z M18.5273438,17.150648 L18.5273438,12.2937365 L22.8043213,14.7208424 C21.8345032,16.0710043 20.2922973,16.9956803 18.5273438,17.150648 Z M22.8043213,8.07100434 L18.5273438,10.4981101 L18.5273438,5.64119872 C20.2922973,5.79616629 21.8345032,6.72084237 22.8043213,8.07100434 Z M17.4726562,5.64119872 L17.4726562,10.4981101 L13.1956787,8.07100434 C14.1654968,6.72084237 15.7077027,5.79616629 17.4726562,5.64119872 Z" id="Shape"></path>
                    <path d="M5.18664551,18.211933 L7.51629642,18.211933 C7.80770876,18.211933 8.04364017,17.9797516 8.04364017,17.6935745 L8.04364017,15.4033478 C8.04364017,15.1171706 7.80770876,14.8849892 7.51629642,14.8849892 L5.18664551,14.8849892 C4.89550781,14.8849892 4.65930176,15.1171706 4.65930176,15.4033478 L4.65930176,17.6935745 C4.65930176,17.9797516 4.89550781,18.211933 5.18664551,18.211933 Z M5.71398926,15.9217063 L6.98895267,15.9217063 L6.98895267,17.175216 L5.71398926,17.175216 L5.71398926,15.9217063 Z" id="Shape"></path>
                </g>
            </g>
        </g>
    </g>
</svg>