<?xml version="1.0" encoding="UTF-8"?>
<svg width="16px" height="9px" viewBox="0 0 16 9" version="1.1" xmlns="http://www.w3.org/2000/svg" xmlns:xlink="http://www.w3.org/1999/xlink">
    <!-- Generator: Sketch 53.2 (72643) - https://sketchapp.com -->
    <title>Fill 4</title>
    <desc>Created with Sketch.</desc>
    <g id="Input-Styles" stroke="none" stroke-width="1" fill="none" fill-rule="evenodd">
        <g id="Select-/-Select-Small" transform="translate(-154.000000, -14.000000)" fill="#424242">
            <path d="M157.395149,25.8531335 C157.576818,26.0248402 157.825657,26.1153846 158.064695,26.1153846 C158.303733,26.1153846 158.552094,26.0248402 158.733644,25.8531335 L165.8381,19.1343057 C166.01965,18.9625991 166.115385,18.7365205 166.115385,18.5011728 C166.115385,18.2662772 166.01965,18.0401987 165.8381,17.8679268 L158.733644,11.149212 C158.360625,10.7964165 157.768168,10.7964165 157.395149,11.149212 C157.02213,11.5020076 157.02213,12.0623432 157.395149,12.4151388 L163.830059,18.5011728 L157.395149,24.5872068 C157.03193,24.9400023 157.03193,25.5096072 157.395149,25.8531335 Z" id="Fill-4" transform="translate(161.615385, 18.500000) rotate(-270.000000) translate(-161.615385, -18.500000) "></path>
        </g>
    </g>
</svg>