<?xml version="1.0" encoding="UTF-8"?>
<svg width="27px" height="27px" viewBox="0 0 27 27" version="1.1" xmlns="http://www.w3.org/2000/svg" xmlns:xlink="http://www.w3.org/1999/xlink">
    <!-- Generator: Sketch 54.1 (76490) - https://sketchapp.com -->
    <title>verified copy 8</title>
    <desc>Created with Sketch.</desc>
    <g id="Mockups" stroke="none" stroke-width="1" fill="none" fill-rule="evenodd">
        <g id="Individual-Solutions---4-rows" transform="translate(-801.000000, -1787.000000)" fill-rule="nonzero">
            <g id="Group-10" transform="translate(351.000000, 1685.000000)">
                <g id="Group-13">
                    <g id="Group-12" transform="translate(1.000000, 102.000000)">
                        <g id="verified-copy-8" transform="translate(449.000000, 0.000000)">
                            <path d="M23.0459238,3.95402344 C20.4961113,1.40426367 17.1059766,0 13.5,0 C9.8939707,0 6.5037832,1.40426367 3.95402344,3.95402344 C1.40421094,6.50383594 0,9.89402344 0,13.5 C0,17.1059766 1.40421094,20.4961113 3.95402344,23.0459238 C6.50383594,25.5957363 9.8939707,27 13.5,27 C17.1059766,27 20.4961113,25.5957363 23.0459238,23.0459238 C25.5957363,20.4961113 27,17.1059766 27,13.5 C27,9.89402344 25.5957363,6.50388867 23.0459238,3.95402344 Z M13.5,25.4179688 C6.92840039,25.4179688 1.58203125,20.0715996 1.58203125,13.5 C1.58203125,6.92840039 6.92840039,1.58203125 13.5,1.58203125 C20.0715996,1.58203125 25.4179688,6.92840039 25.4179688,13.5 C25.4179688,20.0715996 20.0715996,25.4179688 13.5,25.4179688 Z" id="Shape" fill="#0097F4"></path>
                            <path d="M19.7572633,9.22839472 C19.4336696,8.92385976 18.908914,8.92385976 18.5853203,9.22844672 L11.2670858,16.116834 L7.41473492,12.4907567 C7.09114121,12.1861697 6.56638569,12.1861697 6.24273672,12.4907567 C5.91908776,12.7953436 5.91908776,13.2892769 6.24273672,13.5939158 L10.681059,17.7715468 C10.8428835,17.9238663 11.0549846,18 11.2670305,18 C11.4790764,18 11.6912328,17.9238143 11.853002,17.7715468 L19.7572633,10.3315539 C20.0809122,10.0269669 20.0809122,9.53303369 19.7572633,9.22839472 Z" id="Path" fill="#0059D3"></path>
                        </g>
                    </g>
                </g>
            </g>
        </g>
    </g>
</svg>