<?xml version="1.0" encoding="UTF-8"?>
<svg width="15px" height="15px" viewBox="0 0 15 15" version="1.1" xmlns="http://www.w3.org/2000/svg" xmlns:xlink="http://www.w3.org/1999/xlink">
    <!-- Generator: Sketch 53.2 (72643) - https://sketchapp.com -->
    <title>Path</title>
    <desc>Created with Sketch.</desc>
    <g id="Mockups" stroke="none" stroke-width="1" fill="none" fill-rule="evenodd">
        <g id="Home-v2" transform="translate(-1413.000000, -8.000000)" fill="#D7D5D5">
            <path d="M1421.81337,15.4990478 L1427.71874,9.59368133 C1428.09375,9.21866302 1428.09375,8.65554959 1427.71874,8.27994531 C1427.34313,7.9066849 1426.78236,7.9066849 1426.40676,8.27994531 L1420.49905,14.1876556 L1414.59368,8.27994531 C1414.21866,7.9066849 1413.65555,7.9066849 1413.27995,8.27994531 C1412.90668,8.65554959 1412.90668,9.21866302 1413.27995,9.59368133 L1419.18766,15.4990478 L1413.27995,21.4067581 C1412.90668,21.7823624 1412.90668,22.343132 1413.27995,22.7187363 C1413.65555,23.0937546 1414.21866,23.0937546 1414.59368,22.7187363 L1420.49905,16.8133698 L1426.40676,22.7187363 C1426.78236,23.0937546 1427.34313,23.0937546 1427.71874,22.7187363 C1428.09375,22.343132 1428.09375,21.7823624 1427.71874,21.4067581 L1421.81337,15.4990478 Z" id="Path"></path>
        </g>
    </g>
</svg>