<?xml version="1.0" encoding="UTF-8"?>
<svg width="16px" height="13px" viewBox="0 0 16 13" version="1.1" xmlns="http://www.w3.org/2000/svg" xmlns:xlink="http://www.w3.org/1999/xlink">
    <!-- Generator: Sketch 53.2 (72643) - https://sketchapp.com -->
    <title>Shape</title>
    <desc>Created with Sketch.</desc>
    <g id="Mockups" stroke="none" stroke-width="1" fill="none" fill-rule="evenodd">
        <g id="Home-v2" transform="translate(-894.000000, -8.000000)" fill="#D7D5D5" fill-rule="nonzero">
            <g id="Group-11" transform="translate(530.000000, 3.000000)">
                <g id="Group-10" transform="translate(277.000000, 0.000000)">
                    <path d="M102.836019,11.0854966 L97.1975558,5.20554086 C96.9950105,4.95890046 96.6390541,4.93014849 96.4025413,5.14141739 C96.1660284,5.35263576 96.1384571,5.72383437 96.3410508,5.97047477 C96.3599486,5.99346625 96.3804939,6.0149418 96.4025413,6.03459825 L101.076831,10.9149554 L87.5638318,10.9149554 C87.2524548,10.9149554 87,11.1782204 87,11.5029813 C87,11.8277422 87.2524548,12.0909567 87.5638318,12.0909567 L101.076831,12.0909567 L96.4025413,16.9654018 C96.1660284,17.1766201 96.1384571,17.5478187 96.3410508,17.7944591 C96.5436446,18.0410995 96.8995525,18.0698515 97.1360653,17.8585826 C97.1581127,17.8388756 97.1787065,17.8174506 97.1975558,17.7944591 L102.836068,11.9145034 C103.054652,11.6852456 103.054652,11.3148555 102.836019,11.0854966 Z" id="Shape"></path>
                </g>
            </g>
        </g>
    </g>
</svg>