<?xml version="1.0" encoding="UTF-8"?>
<svg width="96px" height="254px" viewBox="0 0 96 254" version="1.1" xmlns="http://www.w3.org/2000/svg" xmlns:xlink="http://www.w3.org/1999/xlink">
    <!-- Generator: Sketch 53.2 (72643) - https://sketchapp.com -->
    <title>Group 15</title>
    <desc>Created with Sketch.</desc>
    <defs>
        <circle id="path-1" cx="135" cy="135" r="135"></circle>
    </defs>
    <g id="Mockups" stroke="none" stroke-width="1" fill="none" fill-rule="evenodd">
        <g id="Home-v2" transform="translate(0.000000, -219.000000)">
            <g id="Group-15" transform="translate(-39.586570, 345.413430) rotate(-30.000000) translate(39.586570, -345.413430) translate(-174.586570, 210.413430)">
                <mask id="mask-2" fill="white">
                    <use xlink:href="#path-1"></use>
                </mask>
                <g id="Mask" fill-rule="nonzero"></g>
                <g mask="url(#mask-2)" stroke-linecap="square">
                    <g transform="translate(-28.000000, 4.000000)">
                        <g id="Group-3">
                            <path d="M0.5,0.5 L308.5,0.5" id="Line-2" stroke="#52BDE0"></path>
                            <path d="M0.5,12.5 L308.5,12.5" id="Line-2-Copy" stroke="#52BDE0"></path>
                            <path d="M0.5,24.5 L308.5,24.5" id="Line-2-Copy-2" stroke="#52BDE0"></path>
                            <path d="M0.5,35.5 L308.5,35.5" id="Line-2-Copy-3" stroke="#52BDE0"></path>
                            <path d="M0.5,47.5 L308.5,47.5" id="Line-2-Copy-4" stroke="#52BDE0"></path>
                            <path d="M0.5,59.5 L308.5,59.5" id="Line-2-Copy-5" stroke="#52BDE0"></path>
                            <path d="M0.5,71.5 L308.5,71.5" id="Line-2-Copy-6" stroke="#52BDE0"></path>
                            <path d="M0.5,82.5 L308.5,82.5" id="Line-2-Copy-7" stroke="#52BDE0"></path>
                            <path d="M0.5,94.5 L308.5,94.5" id="Line-2-Copy-8" stroke="#52BDE0"></path>
                            <path d="M0.5,106.5 L308.5,106.5" id="Line-2-Copy-9" stroke="#52BDE0"></path>
                            <path d="M0.5,118.5 L308.5,118.5" id="Line-2-Copy-10" stroke="#52BDE0"></path>
                            <path d="M0.5,129.5 L308.5,129.5" id="Line-2-Copy-11" stroke="#52BDE0"></path>
                            <path d="M0.5,141.5 L308.5,141.5" id="Line-2-Copy-12" stroke="#52BDE0"></path>
                            <path d="M0.5,153.5 L308.5,153.5" id="Line-2-Copy-13" stroke="#52BDE0"></path>
                        </g>
                        <g id="Group-3-Copy" transform="translate(0.000000, 166.000000)">
                            <path d="M0.5,0.5 L308.5,0.5" id="Line-2" stroke="#52BDE0"></path>
                            <path d="M0.5,12.5 L308.5,12.5" id="Line-2-Copy" stroke="#52BDE0"></path>
                            <path d="M0.5,24.5 L308.5,24.5" id="Line-2-Copy-2" stroke="#52BDE0"></path>
                            <path d="M0.5,35.5 L308.5,35.5" id="Line-2-Copy-3" stroke="#52BDE0"></path>
                            <path d="M0.5,47.5 L308.5,47.5" id="Line-2-Copy-4" stroke="#52BDE0"></path>
                            <path d="M0.5,59.5 L308.5,59.5" id="Line-2-Copy-5" stroke="#52BDE0"></path>
                            <path d="M0.5,71.5 L308.5,71.5" id="Line-2-Copy-6" stroke="#52BDE0"></path>
                            <path d="M0.5,82.5 L308.5,82.5" id="Line-2-Copy-7" stroke="#52BDE0"></path>
                            <path d="M0.5,94.5 L308.5,94.5" id="Line-2-Copy-8" stroke="#52BDE0"></path>
                            <path d="M0.5,106.5 L308.5,106.5" id="Line-2-Copy-9" stroke="#52BDE0"></path>
                            <path d="M0.5,118.5 L308.5,118.5" id="Line-2-Copy-10" stroke="#52BDE0"></path>
                            <path d="M0.5,129.5 L308.5,129.5" id="Line-2-Copy-11" stroke="#52BDE0"></path>
                            <path d="M0.5,141.5 L308.5,141.5" id="Line-2-Copy-12" stroke="#52BDE0"></path>
                            <path d="M0.5,153.5 L308.5,153.5" id="Line-2-Copy-13" stroke="#52BDE0"></path>
                        </g>
                    </g>
                </g>
            </g>
        </g>
    </g>
</svg>