<?xml version="1.0" encoding="UTF-8"?>
<svg width="266px" height="60px" viewBox="0 0 266 60" version="1.1" xmlns="http://www.w3.org/2000/svg" xmlns:xlink="http://www.w3.org/1999/xlink">
    <!-- Generator: Sketch 53.2 (72643) - https://sketchapp.com -->
    <title>portrait_displays_color copy</title>
    <desc>Created with Sketch.</desc>
    <defs>
        <polygon id="path-1" points="0.00957446809 0.0210239362 44.0139894 0.0210239362 44.0139894 28.1171809 0.00957446809 28.1171809"></polygon>
    </defs>
    <g id="Header" stroke="none" stroke-width="1" fill="none" fill-rule="evenodd">
        <g id="Navigation-v3---April-1st" transform="translate(0.000000, -34.000000)">
            <g id="portrait_displays_color-copy" transform="translate(0.000000, 34.000000)">
                <polygon id="Fill-1" fill="#0A0B09" points="237 6.33861702 242.870745 6.33861702 242.870745 0.145053191 237 0.145053191"></polygon>
                <path d="M85.9712234,34.1120745 C91.5068617,34.0956383 95.5820745,29.9917021 95.6017021,24.413617 C95.6213298,18.8237234 91.4106383,14.6012234 85.8606383,14.6431915 C80.3610638,14.6856383 76.2054255,18.8792553 76.2098936,24.3815426 C76.213883,29.983883 80.3720745,34.1283511 85.9712234,34.1120745 M70.4610638,9.45941489 C71.7435638,9.49595745 73.3002128,9.10356383 74.2281383,9.69606383 C75.0962234,10.2501064 75.2969681,11.8492021 75.7894149,12.9884043 C83.3813298,6.20553191 93.4132979,8.73462766 97.8055851,13.6653191 C102.974521,19.4664894 103.120213,28.8465957 98.0810106,34.7948936 C93.6344681,40.0440957 84.3164362,42.2821277 76.7023404,36.5915426 L76.7023404,49.7744681 L70.4610638,49.7744681 L70.4610638,9.45941489" id="Fill-3" fill="#0A0B09"></path>
                <path d="M215.162234,34.066117 C220.720213,34.0739362 224.808511,30.0130851 224.842021,24.4487234 C224.875532,18.8299468 220.744149,14.6409574 215.171809,14.6443085 C209.684043,14.6475 205.496809,18.8058511 205.452128,24.2963298 C205.405851,29.8659574 209.573936,34.0576596 215.162234,34.066117 M225.560106,13.0882979 C225.828191,11.833883 226.064362,10.7253191 226.300532,9.61021277 L230.832447,9.61021277 L230.832447,39.126383 L226.088298,39.126383 C225.87766,38.0640957 225.660638,36.9705319 225.434043,35.8254255 C217.528723,42.6809043 207.43883,39.9810638 203.095213,34.9104255 C198.090957,29.0661702 198.065426,19.7816489 202.970745,13.9889362 C207.346277,8.82015957 217.742553,6.09223404 225.560106,13.0882979" id="Fill-4" fill="#0A0B09"></path>
                <path d="M120.113138,34.1127128 C125.768457,34.1492553 129.793883,30.1126596 129.809681,24.3906383 C129.825319,18.7851064 125.782979,14.6680851 120.241277,14.6431915 C114.685532,14.6195745 110.591809,18.673883 110.529734,24.2618617 C110.467021,29.9610638 114.470266,34.0760106 120.113138,34.1127128 M135.979628,24.339734 C135.993511,33.301117 129.253723,39.9805851 120.19867,39.9785106 C111.135479,39.9773936 104.369521,33.3186702 104.350532,24.3809043 C104.33234,15.4469681 111.073245,8.85638298 120.221649,8.86484043 C129.264894,8.87202128 135.966543,15.4541489 135.979628,24.339734" id="Fill-5" fill="#0A0B09"></path>
                <path d="M139.199362,9.70117021 C139.371223,9.61819149 139.411117,9.58340426 139.454202,9.57957447 C143.055319,9.25132979 143.054043,9.25196809 144.021862,12.7870213 C144.071011,12.9667021 144.1725,13.1321809 144.335904,13.4958511 C147.339255,9.67308511 151.405213,9.12047872 155.874894,9.49132979 L155.874894,15.1766489 C154.614415,15.1766489 153.389681,15.1440957 152.167021,15.1825532 C148.150691,15.3081383 145.50734,17.753617 145.373777,21.7862234 C145.20383,26.97 145.259362,32.1628723 145.21883,37.3514362 C145.215,37.9137766 145.218191,38.475 145.218191,39.1144149 L139.199362,39.1144149 L139.199362,9.70117021" id="Fill-6" fill="#0A0B09"></path>
                <path d="M187.820745,39.1391489 L181.819149,39.1391489 L181.819149,9.53234043 C182.948936,9.53234043 184.118617,9.48 185.278723,9.57079787 C185.548404,9.5918617 185.897872,10.0581383 186.007979,10.3876596 C186.333511,11.3564362 186.556915,12.358883 186.882447,13.5845745 C189.954255,9.66702128 194.00266,9.13276596 198.457979,9.48973404 L198.457979,15.1693085 C197.355319,15.1693085 196.231915,15.152234 195.108511,15.1718617 C190.737766,15.2503723 188.101596,17.6605851 187.96117,22.0156915 C187.798404,27.0580851 187.855851,32.1078191 187.820745,37.1542021 C187.815957,37.7696809 187.820745,38.3857979 187.820745,39.1391489" id="Fill-7" fill="#0A0B09"></path>
                <polygon id="Fill-8" fill="#0A0B09" points="237 39.0965426 242.870745 39.0965426 242.870745 9.59361702 237 9.59361702"></polygon>
                <path d="M173.331383,33.6521809 C170.245213,33.366383 168.604787,31.598617 168.532979,28.5148404 C168.473936,26.04 168.510638,23.5632447 168.507447,21.087766 C168.505851,19.0551064 168.507447,17.3379255 168.507447,15.1389894 L177.164362,15.1389894 L177.164362,9.6375 L168.445213,9.6375 L168.445213,2.83675532 L156.857234,15.1600532 L162.405319,15.1600532 C162.405319,15.9402128 162.403723,16.3926064 162.406915,16.9576596 C162.435638,21.4311702 162.339894,25.7084043 162.539362,30.1753723 C162.694149,33.6821809 164.372872,36.4415426 167.604255,38.0610638 C170.725532,39.6255319 174.059043,39.1694681 177.3,39.144734 L177.3,33.6711702 C175.895745,33.6711702 174.603191,33.7705851 173.331383,33.6521809" id="Fill-9" fill="#0A0B09"></path>
                <path d="M261.440426,33.6521809 C258.355851,33.366383 256.71383,31.598617 256.642021,28.5148404 C256.584574,26.04 256.619681,23.5632447 256.616489,21.087766 C256.614894,19.0551064 256.616489,17.3379255 256.616489,15.1389894 L265.275,15.1389894 L265.275,9.6375 L256.555851,9.6375 L256.555851,2.83675532 L244.967553,15.1600532 L250.515957,15.1600532 C250.515957,15.9402128 250.512766,16.3926064 250.515957,16.9576596 C250.546277,21.4311702 250.448936,25.7084043 250.648404,30.1753723 C250.804787,33.6821809 252.481915,36.4415426 255.714894,38.0610638 C258.83617,39.6255319 262.168085,39.1694681 265.409043,39.144734 L265.409043,33.6711702 C264.006383,33.6711702 262.71383,33.7705851 261.440426,33.6521809" id="Fill-10" fill="#0A0B09"></path>
                <path d="M184.934043,51.2757447 C184.934043,49.3734574 183.520213,47.9414362 181.605319,47.9414362 C179.68883,47.9414362 178.289362,49.3602128 178.289362,51.2757447 C178.289362,53.1914362 179.68883,54.6100532 181.605319,54.6100532 C183.520213,54.6100532 184.934043,53.1644681 184.934043,51.2757447 Z M186.87766,42.5516489 L186.87766,56.3573936 L185.297872,56.3573936 L185.028191,55.2044681 C184.11383,56.0857979 182.865957,56.6101596 181.440957,56.6101596 C178.367553,56.6101596 176.157447,54.3221809 176.157447,51.2760638 C176.157447,48.216383 178.367553,45.9470745 181.440957,45.9470745 C182.744681,45.9470745 183.9,46.3825532 184.78883,47.1295213 L184.78883,42.5513298 L186.87766,42.5516489 L186.87766,42.5516489 Z" id="Fill-11" fill="#0A0B09"></path>
                <path d="M189.842553,56.3570745 L191.931383,56.3570745 L191.931383,46.194734 L189.842553,46.194734 L189.842553,56.3570745 Z M189.807447,44.6198936 L191.966489,44.6198936 L191.966489,42.4648404 L189.807447,42.4648404 L189.807447,44.6198936 Z" id="Fill-12" fill="#0A0B09"></path>
                <path d="M193.924468,53.1301596 L195.965426,53.1301596 C196.018085,54.2050532 196.921277,54.7664362 198.146809,54.7664362 C199.268617,54.7664362 200.130319,54.2912234 200.130319,53.4422872 C200.130319,52.4781383 199.040426,52.257766 197.795745,52.0479255 C196.10266,51.7578191 194.107979,51.3730851 194.107979,49.0180851 C194.107979,47.1944681 195.682979,45.9470745 198.046277,45.9470745 C200.409574,45.9470745 201.939894,47.2321277 201.981383,49.2031915 L200.00266,49.2031915 C199.96117,48.2361702 199.225532,47.7175532 197.998404,47.7175532 C196.843085,47.7175532 196.128191,48.2092021 196.128191,48.9507447 C196.128191,49.8477128 197.165426,50.0248404 198.390957,50.226383 C200.109574,50.5142553 202.195213,50.8452128 202.195213,53.3506915 C202.195213,55.3243085 200.55,56.6045745 198.073404,56.6045745 C195.601596,56.6045745 193.978723,55.2384574 193.924468,53.1301596" id="Fill-13" fill="#0A0B09"></path>
                <path d="M212.671277,51.2757447 C212.671277,49.3598936 211.271809,47.9414362 209.356915,47.9414362 C207.440426,47.9414362 206.028191,49.3734574 206.028191,51.2757447 C206.028191,53.1780319 207.440426,54.6100532 209.356915,54.6100532 C211.271809,54.6100532 212.671277,53.191117 212.671277,51.2757447 Z M214.785638,51.2757447 C214.785638,54.3218617 212.56117,56.6098404 209.521277,56.6098404 C208.204787,56.6098404 207.036702,56.1545745 206.146277,55.3792021 L206.146277,60 L204.057447,60 L204.057447,46.194734 L205.464894,46.194734 L205.857447,47.4426064 C206.776596,46.5057447 208.057979,45.9470745 209.521277,45.9470745 C212.56117,45.9470745 214.785638,48.2162234 214.785638,51.2757447 L214.785638,51.2757447 Z" id="Fill-14" fill="#0A0B09"></path>
                <polygon id="Fill-15" fill="#0A0B09" points="216.553723 56.3570745 218.642553 56.3570745 218.642553 42.5516489 216.553723 42.5516489"></polygon>
                <path d="M229.169681,51.2706383 C229.169681,49.3549468 227.770213,47.9364894 225.855319,47.9364894 C223.93883,47.9364894 222.526596,49.3683511 222.526596,51.2706383 C222.526596,53.1729255 223.93883,54.6049468 225.855319,54.6049468 C227.770213,54.6049468 229.169681,53.1860106 229.169681,51.2706383 Z M231.264894,46.1893085 L231.264894,56.3516489 L229.579787,56.3516489 L229.375532,55.1159043 C228.454787,56.0471809 227.171809,56.6048936 225.690957,56.6048936 C222.66383,56.6048936 220.399468,54.3167553 220.399468,51.2706383 C220.399468,48.216383 222.66383,45.9470745 225.690957,45.9470745 C227.189362,45.9470745 228.485106,46.5132447 229.407447,47.46 L229.651596,46.1889894 L231.264894,46.1893085 L231.264894,46.1893085 Z" id="Fill-16" fill="#0A0B09"></path>
                <path d="M243.250532,46.194734 L238.581383,56.5412234 C237.434043,59.0961702 236.42234,60 234.351064,60 L233.318617,60 L233.318617,58.1182979 L234.189894,58.1182979 C235.535106,58.1182979 235.948404,57.7260638 236.692021,56.1 L236.920213,55.6212766 L232.495213,46.194734 L234.767553,46.194734 L237.99734,53.2806383 L241.02766,46.194734 L243.250532,46.194734" id="Fill-17" fill="#0A0B09"></path>
                <path d="M243.376596,53.1301596 L245.415957,53.1301596 C245.470213,54.2050532 246.373404,54.7664362 247.59734,54.7664362 C248.720745,54.7664362 249.582447,54.2912234 249.582447,53.4422872 C249.582447,52.4781383 248.492553,52.257766 247.247872,52.0479255 C245.554787,51.7578191 243.560106,51.3730851 243.560106,49.0180851 C243.560106,47.1944681 245.135106,45.9470745 247.498404,45.9470745 C249.861702,45.9470745 251.392021,47.2321277 251.431915,49.2031915 L249.453191,49.2031915 C249.413298,48.2361702 248.67766,47.7175532 247.450532,47.7175532 C246.295213,47.7175532 245.580319,48.2092021 245.580319,48.9507447 C245.580319,49.8477128 246.617553,50.0248404 247.843085,50.226383 C249.560106,50.5142553 251.64734,50.8452128 251.64734,53.3506915 C251.64734,55.3243085 250.002128,56.6045745 247.525532,56.6045745 C245.053723,56.6045745 243.429255,55.2384574 243.376596,53.1301596" id="Fill-18" fill="#0A0B09"></path>
                <path d="M26.686117,36.5746277 L30.717766,39.0054255 C33.5671277,40.7229255 37.1329787,40.7229255 39.9821809,39.0054255 L55.5657447,29.6098404 L46.9013298,24.3861702 L26.686117,36.5746277" id="Fill-19" fill="#DA2A55"></path>
                <g id="Group-23" transform="translate(0.000000, 8.457447)">
                    <mask id="mask-2" fill="white">
                        <use xlink:href="#path-1"></use>
                    </mask>
                    <g id="Clip-21"></g>
                    <path d="M26.686117,28.1171809 L35.349734,22.8935106 L35.3505319,22.8931915 L38.0390426,21.2720745 L36.3719681,21.5010638 C35.8520745,21.5754255 35.0714362,21.522766 34.5510638,21.4519149 C33.0151596,21.2427128 31.5057447,20.5753723 30.4239894,19.9236702 L27.3975,18.0984574 C26.0553191,17.2890957 24.3753191,17.2889362 23.0331383,18.0982979 L16.5512234,22.0069149 L26.686117,28.1171809" id="Fill-20" fill="#52BDE0" mask="url(#mask-2)"></path>
                    <path d="M5.18888298,22.4339362 L0,19.3054787 L30.717766,1.30914894 C33.5671277,-0.408351064 37.1329787,-0.408351064 39.9821809,1.30914894 L44.0139894,3.73994681 L12.1397872,22.4339362 C10.0014894,23.7229787 7.32638298,23.7229787 5.18888298,22.4339362" id="Fill-22" fill="#F8C523" mask="url(#mask-2)"></path>
                </g>
                <path d="M61.2146809,22.5678191 L44.0139894,12.1973936 L32.5525532,18.9193085 L33.8032979,18.7634043 C34.7420745,18.6464362 35.6974468,18.6781915 36.6162766,18.9030319 C37.9962766,19.2408511 39.3876064,19.8556915 40.276117,20.3909043 L55.5655851,29.6096809 L61.2146809,26.2032447 C62.5833511,25.3782447 62.5833511,23.393617 61.2146809,22.5678191" id="Fill-24" fill="#4EAF46"></path>
            </g>
        </g>
    </g>
</svg>