<?xml version="1.0" encoding="UTF-8"?>
<svg width="23px" height="22px" viewBox="0 0 23 22" version="1.1" xmlns="http://www.w3.org/2000/svg" xmlns:xlink="http://www.w3.org/1999/xlink">
    <!-- Generator: Sketch 53.2 (72643) - https://sketchapp.com -->
    <title>shopping-cart</title>
    <desc>Created with Sketch.</desc>
    <g id="Header" stroke="none" stroke-width="1" fill="none" fill-rule="evenodd">
        <g id="Sticky-Header---April-1st-Menu" transform="translate(-1099.000000, -3.000000)" fill="#FFFFFF" fill-rule="nonzero">
            <g id="shopping-cart" transform="translate(1099.000000, 3.000000)">
                <path d="M8.92427885,17.8485577 C7.940109,17.8485577 7.13942308,18.6492436 7.13942308,19.6334135 C7.13942308,20.6175833 7.940109,21.4182692 8.92427885,21.4182692 C9.90844869,21.4182692 10.7091346,20.6175833 10.7091346,19.6334135 C10.709095,18.6492436 9.90840905,17.8485577 8.92427885,17.8485577 Z M8.92427885,20.4216134 C8.48960945,20.4216134 8.13599959,20.0679639 8.13599959,19.6333342 C8.13599959,19.1986648 8.48964909,18.8450549 8.92427885,18.8450549 C9.35890861,18.8450549 9.7125581,19.1987044 9.7125581,19.6333342 C9.7125581,20.0680432 9.35890861,20.4216134 8.92427885,20.4216134 Z" id="Shape"></path>
                <path d="M16.0637019,17.8485577 C15.0795321,17.8485577 14.2788462,18.6492436 14.2788462,19.6334135 C14.2788462,20.6175833 15.0795321,21.4182692 16.0637019,21.4182692 C17.0478718,21.4182692 17.8485577,20.6175833 17.8485577,19.6334135 C17.8485181,18.6492436 17.0478321,17.8485577 16.0637019,17.8485577 Z M16.0637019,20.4216134 C15.6290325,20.4216134 15.2754227,20.0679639 15.2754227,19.6333342 C15.2754227,19.1986648 15.6290722,18.8450549 16.0637019,18.8450549 C16.4983713,18.8450549 16.8519812,19.1987044 16.8519812,19.6333342 C16.8519812,20.0680432 16.4983317,20.4216134 16.0637019,20.4216134 Z" id="Shape"></path>
                <path d="M17.2802201,6.42548077 L9.13564529,6.42548077 C8.82175078,6.42548077 8.56730769,6.74511066 8.56730769,7.13942308 C8.56730769,7.5337355 8.82179599,7.85336538 9.13564529,7.85336538 L17.2802201,7.85336538 C17.5941146,7.85336538 17.8485577,7.5337355 17.8485577,7.13942308 C17.8485577,6.74505386 17.5941146,6.42548077 17.2802201,6.42548077 Z" id="Path"></path>
                <path d="M16.5546303,9.28125 L9.14733896,9.28125 C8.826986,9.28125 8.56730769,9.60087989 8.56730769,9.99519231 C8.56730769,10.3895047 8.826986,10.7091346 9.14733896,10.7091346 L16.5545841,10.7091346 C16.8749371,10.7091346 17.1346154,10.3895047 17.1346154,9.99519231 C17.1346154,9.60093668 16.8749371,9.28125 16.5546303,9.28125 Z" id="Path"></path>
                <path d="M22.5936772,4.09539707 C22.3797621,3.82951038 22.0627715,3.67704579 21.7240503,3.67704579 L4.25146025,3.67704579 L3.89859401,1.94232041 C3.82492404,1.58045423 3.58120182,1.27660955 3.2464965,1.12943195 L0.784420115,0.0471773289 C0.500181635,-0.0778581011 0.169849223,0.0542266701 0.0465602244,0.341984393 C-0.0768626382,0.629832491 0.0535657882,0.964405069 0.337670404,1.08925975 L2.79979141,2.17155956 L5.51393424,15.5138386 C5.62084717,16.0392856 6.08294665,16.4206731 6.61273684,16.4206731 L20.051193,16.4206731 C20.3609996,16.4206731 20.612129,16.1663545 20.612129,15.8526137 C20.612129,15.5388728 20.3609996,15.2845543 20.051193,15.2845543 L6.61278146,15.2845543 L6.28262753,13.661579 L20.1550717,13.661579 C20.6848173,13.661579 21.1469614,13.2801916 21.2538297,12.7547445 L22.8228529,5.0422682 C22.8911683,4.70643035 22.807637,4.36123857 22.5936772,4.09539707 Z M20.1550717,12.5255506 L6.05153317,12.5255506 L4.48259923,4.81311942 L21.7240057,4.81311942 L20.1550717,12.5255506 Z" id="Shape"></path>
            </g>
        </g>
    </g>
</svg>