<?xml version="1.0" encoding="UTF-8"?>
<svg width="16px" height="8px" viewBox="0 0 16 8" version="1.1" xmlns="http://www.w3.org/2000/svg" xmlns:xlink="http://www.w3.org/1999/xlink">
    <!-- Generator: Sketch 55.2 (78181) - https://sketchapp.com -->
    <title>Group 16</title>
    <desc>Created with Sketch.</desc>
    <g id="Mockups" stroke="none" stroke-width="1" fill="none" fill-rule="evenodd">
        <g id="Home---Upper-Bar" transform="translate(-439.000000, -1124.000000)" fill="#FFFFFF" fill-rule="nonzero">
            <g id="Group-6" transform="translate(220.000000, 1092.000000)">
                <g id="Group-16" transform="translate(219.000000, 32.000000)">
                    <g id="right-arrow">
                        <path d="M15.894248,3.74492097 L15.894248,3.74492097 L12.257969,0.126486685 C12.1273464,-0.025292024 11.897788,-0.0429855469 11.7452594,0.0870260867 C11.5927309,0.217006625 11.57495,0.445436536 11.7056039,0.597215246 C11.7177912,0.611363845 11.7310409,0.624579569 11.7452594,0.636675844 L14.7597369,3.63997257 L0.363618519,3.63997257 C0.162809598,3.63997257 0,3.8019818 0,4.00183465 C0,4.2016875 0.162809598,4.36366564 0.363618519,4.36366564 L14.7597369,4.36366564 L11.7452594,7.36332416 C11.5927309,7.49330469 11.57495,7.72173461 11.7056039,7.87351331 C11.8362578,8.02529202 12.065785,8.04298555 12.2183135,7.91297391 C12.232532,7.90084654 12.245813,7.88766191 12.257969,7.87351331 L15.8942792,4.25507903 C16.0352455,4.11399729 16.0352455,3.88606491 15.894248,3.74492097 Z" id="Shape"></path>
                    </g>
                </g>
            </g>
        </g>
    </g>
</svg>