<?xml version="1.0" encoding="UTF-8"?>
<svg width="16px" height="8px" viewBox="0 0 16 8" version="1.1" xmlns="http://www.w3.org/2000/svg" xmlns:xlink="http://www.w3.org/1999/xlink">
    <!-- Generator: Sketch 53.2 (72643) - https://sketchapp.com -->
    <title>Shape</title>
    <desc>Created with Sketch.</desc>
    <g id="Input-Styles" stroke="none" stroke-width="1" fill="none" fill-rule="evenodd">
        <g id="Buttons-/-Secondary-Long-Button" transform="translate(-219.000000, -18.000000)" fill="#FFFFFF" fill-rule="nonzero">
            <path d="M234.894248,21.744921 L231.257969,18.1264867 C231.127346,17.974708 230.897788,17.9570145 230.745259,18.0870261 C230.592731,18.2170066 230.57495,18.4454365 230.705604,18.5972152 C230.717791,18.6113638 230.731041,18.6245796 230.745259,18.6366758 L233.759737,21.6399726 L219.363619,21.6399726 C219.16281,21.6399726 219,21.8019818 219,22.0018347 C219,22.2016875 219.16281,22.3636656 219.363619,22.3636656 L233.759737,22.3636656 L230.745259,25.3633242 C230.592731,25.4933047 230.57495,25.7217346 230.705604,25.8735133 C230.836258,26.025292 231.065785,26.0429855 231.218313,25.9129739 C231.232532,25.9008465 231.245813,25.8876619 231.257969,25.8735133 L234.894279,22.255079 C235.035245,22.1139973 235.035245,21.8860649 234.894248,21.744921 Z" id="Shape"></path>
        </g>
    </g>
</svg>