<?xml version="1.0" standalone="no"?>
<!DOCTYPE svg PUBLIC "-//W3C//DTD SVG 20010904//EN"
 "http://www.w3.org/TR/2001/REC-SVG-20010904/DTD/svg10.dtd">
<svg version="1.0" xmlns="http://www.w3.org/2000/svg"
 width="300.000000pt" height="300.000000pt" viewBox="0 0 300.000000 300.000000"
 preserveAspectRatio="xMidYMid meet">
<metadata>
Created by potrace 1.11, written by Peter Selinger 2001-2013
</metadata>
<g transform="translate(0.000000,300.000000) scale(0.100000,-0.100000)"
fill="#000000" stroke="none">
<path d="M1565 2326 c-22 -7 -58 -23 -80 -35 -76 -44 -1420 -834 -1427 -840
-9 -8 259 -168 303 -182 55 -16 154 -12 202 9 39 17 209 116 777 452 l225 133
71 3 c125 5 193 -22 447 -176 75 -46 134 -87 130 -91 -5 -4 -99 -62 -211 -130
l-203 -122 -87 0 c-107 0 -172 23 -322 114 -100 61 -108 64 -170 64 -66 0 -66
0 -232 -100 -124 -75 -163 -103 -155 -111 24 -22 648 -396 702 -420 69 -30
175 -37 253 -17 58 15 104 38 207 101 33 20 252 153 487 296 263 160 431 268
439 282 18 34 13 83 -11 109 -11 12 -80 58 -153 102 -908 550 -896 543 -956
562 -46 15 -186 13 -236 -3z"/>
</g>
</svg>
